<mxfile host="app.diagrams.net" modified="2024-07-02T16:01:31.645Z" agent="Mozilla/5.0 (Windows NT 10.0; Win64; x64) AppleWebKit/537.36 (KHTML, like Gecko) Chrome/126.0.0.0 Safari/537.36 Edg/126.0.0.0" etag="X9vU_VBJugZf9kMe-33l" version="24.6.4" type="github">
  <diagram name="Page-1" id="3K2lNwn0VN9t-A4l6jHt">
    <mxGraphModel dx="3309" dy="1355" grid="1" gridSize="10" guides="1" tooltips="1" connect="1" arrows="1" fold="1" page="1" pageScale="1" pageWidth="827" pageHeight="1169" math="0" shadow="0">
      <root>
        <mxCell id="0" />
        <mxCell id="1" parent="0" />
        <mxCell id="B_b6lFgtmEgpgwVWBHdD-1" value="UI" style="swimlane;whiteSpace=wrap;html=1;" vertex="1" parent="1">
          <mxGeometry x="-800" y="40" width="630" height="1040" as="geometry">
            <mxRectangle x="-800" y="40" width="140" height="30" as="alternateBounds" />
          </mxGeometry>
        </mxCell>
        <mxCell id="B_b6lFgtmEgpgwVWBHdD-2" value="" style="ellipse;fillColor=strokeColor;html=1;" vertex="1" parent="B_b6lFgtmEgpgwVWBHdD-1">
          <mxGeometry x="130" y="130" width="30" height="30" as="geometry" />
        </mxCell>
        <mxCell id="B_b6lFgtmEgpgwVWBHdD-3" value="" style="html=1;verticalAlign=bottom;labelBackgroundColor=none;endArrow=block;endFill=1;rounded=0;exitX=0.5;exitY=1;exitDx=0;exitDy=0;" edge="1" parent="B_b6lFgtmEgpgwVWBHdD-1" source="B_b6lFgtmEgpgwVWBHdD-2">
          <mxGeometry width="160" relative="1" as="geometry">
            <mxPoint x="170" y="390" as="sourcePoint" />
            <mxPoint x="145" y="210" as="targetPoint" />
          </mxGeometry>
        </mxCell>
        <mxCell id="B_b6lFgtmEgpgwVWBHdD-4" value="&lt;span style=&quot;font-size: 13px;&quot;&gt;A L&#39;initiation de la commande d&#39;une MOJ&lt;/span&gt;" style="text;html=1;align=center;verticalAlign=middle;whiteSpace=wrap;rounded=0;" vertex="1" parent="B_b6lFgtmEgpgwVWBHdD-1">
          <mxGeometry x="40" y="80" width="80" height="90" as="geometry" />
        </mxCell>
        <mxCell id="B_b6lFgtmEgpgwVWBHdD-5" value="&lt;font style=&quot;font-size: 14px;&quot;&gt;Remplir le Formulaire de Commande de la MOJ&lt;/font&gt;" style="html=1;align=center;verticalAlign=top;rounded=1;absoluteArcSize=1;arcSize=10;dashed=0;whiteSpace=wrap;" vertex="1" parent="B_b6lFgtmEgpgwVWBHdD-1">
          <mxGeometry x="80" y="210" width="140" height="70" as="geometry" />
        </mxCell>
        <mxCell id="B_b6lFgtmEgpgwVWBHdD-6" value="Message D&#39;erreur" style="swimlane;fontStyle=1;align=center;verticalAlign=middle;childLayout=stackLayout;horizontal=1;startSize=30;horizontalStack=0;resizeParent=0;resizeLast=1;container=0;fontColor=#000000;collapsible=0;rounded=1;arcSize=30;strokeColor=#ff0000;fillColor=#ffffff;swimlaneFillColor=#ffffff;dropTarget=0;labelBorderColor=none;labelBackgroundColor=none;" vertex="1" parent="B_b6lFgtmEgpgwVWBHdD-1">
          <mxGeometry x="170" y="320" width="160" height="60" as="geometry" />
        </mxCell>
        <mxCell id="B_b6lFgtmEgpgwVWBHdD-7" value="Le nom de Qualification est requis" style="text;html=1;strokeColor=none;fillColor=none;align=center;verticalAlign=middle;spacingLeft=4;spacingRight=4;whiteSpace=wrap;overflow=hidden;rotatable=0;fontColor=#000000;" vertex="1" parent="B_b6lFgtmEgpgwVWBHdD-6">
          <mxGeometry y="30" width="160" height="30" as="geometry" />
        </mxCell>
        <mxCell id="B_b6lFgtmEgpgwVWBHdD-8" value="Message D&#39;erreur" style="swimlane;fontStyle=1;align=center;verticalAlign=middle;childLayout=stackLayout;horizontal=1;startSize=30;horizontalStack=0;resizeParent=0;resizeLast=1;container=0;fontColor=#000000;collapsible=0;rounded=1;arcSize=30;strokeColor=#ff0000;fillColor=#ffffff;swimlaneFillColor=#ffffff;dropTarget=0;labelBorderColor=none;labelBackgroundColor=none;" vertex="1" parent="B_b6lFgtmEgpgwVWBHdD-1">
          <mxGeometry x="170" y="400" width="160" height="80" as="geometry" />
        </mxCell>
        <mxCell id="B_b6lFgtmEgpgwVWBHdD-9" value="Le Nombre de MOJ est requis" style="text;html=1;strokeColor=none;fillColor=none;align=center;verticalAlign=middle;spacingLeft=4;spacingRight=4;whiteSpace=wrap;overflow=hidden;rotatable=0;fontColor=#000000;" vertex="1" parent="B_b6lFgtmEgpgwVWBHdD-8">
          <mxGeometry y="30" width="160" height="50" as="geometry" />
        </mxCell>
        <mxCell id="B_b6lFgtmEgpgwVWBHdD-10" value="&lt;font style=&quot;font-size: 18px;&quot;&gt;Engistrer&lt;/font&gt;" style="html=1;align=center;verticalAlign=top;rounded=1;absoluteArcSize=1;arcSize=10;dashed=0;whiteSpace=wrap;" vertex="1" parent="B_b6lFgtmEgpgwVWBHdD-1">
          <mxGeometry x="330" y="220" width="100" height="40" as="geometry" />
        </mxCell>
        <mxCell id="B_b6lFgtmEgpgwVWBHdD-11" value="" style="html=1;verticalAlign=bottom;labelBackgroundColor=none;endArrow=block;endFill=1;rounded=0;entryX=0;entryY=0.5;entryDx=0;entryDy=0;" edge="1" parent="B_b6lFgtmEgpgwVWBHdD-1" target="B_b6lFgtmEgpgwVWBHdD-10">
          <mxGeometry width="160" relative="1" as="geometry">
            <mxPoint x="220" y="239.44" as="sourcePoint" />
            <mxPoint x="300" y="239.44" as="targetPoint" />
          </mxGeometry>
        </mxCell>
        <mxCell id="B_b6lFgtmEgpgwVWBHdD-12" value="Controle" style="swimlane;whiteSpace=wrap;html=1;" vertex="1" parent="1">
          <mxGeometry x="-120" y="40" width="310" height="1040" as="geometry">
            <mxRectangle x="90" y="40" width="90" height="30" as="alternateBounds" />
          </mxGeometry>
        </mxCell>
        <mxCell id="B_b6lFgtmEgpgwVWBHdD-13" value="Confirmation ?" style="rhombus;" vertex="1" parent="B_b6lFgtmEgpgwVWBHdD-12">
          <mxGeometry x="130" y="120" width="90" height="80" as="geometry" />
        </mxCell>
        <mxCell id="B_b6lFgtmEgpgwVWBHdD-14" value="Condition&#xa;remplie ?" style="rhombus;" vertex="1" parent="B_b6lFgtmEgpgwVWBHdD-12">
          <mxGeometry x="130" y="250" width="90" height="80" as="geometry" />
        </mxCell>
        <mxCell id="B_b6lFgtmEgpgwVWBHdD-15" value="Si non" style="text;html=1;align=center;verticalAlign=middle;whiteSpace=wrap;rounded=0;" vertex="1" parent="B_b6lFgtmEgpgwVWBHdD-12">
          <mxGeometry x="60" y="260" width="60" height="30" as="geometry" />
        </mxCell>
        <mxCell id="B_b6lFgtmEgpgwVWBHdD-16" value="Si oui" style="text;html=1;align=center;verticalAlign=middle;whiteSpace=wrap;rounded=0;" vertex="1" parent="B_b6lFgtmEgpgwVWBHdD-12">
          <mxGeometry x="220" y="260" width="60" height="30" as="geometry" />
        </mxCell>
        <mxCell id="B_b6lFgtmEgpgwVWBHdD-17" value="Systeme" style="swimlane;whiteSpace=wrap;html=1;" vertex="1" parent="1">
          <mxGeometry x="320" y="40" width="480" height="1040" as="geometry" />
        </mxCell>
        <mxCell id="B_b6lFgtmEgpgwVWBHdD-18" value="Vérifier La Saisie du Nombre de MOJ" style="html=1;align=center;verticalAlign=top;rounded=1;absoluteArcSize=1;arcSize=10;dashed=0;whiteSpace=wrap;" vertex="1" parent="B_b6lFgtmEgpgwVWBHdD-17">
          <mxGeometry x="71" y="267" width="140" height="50" as="geometry" />
        </mxCell>
        <mxCell id="B_b6lFgtmEgpgwVWBHdD-19" value="Enregistrer La Commande" style="html=1;align=center;verticalAlign=top;rounded=1;absoluteArcSize=1;arcSize=10;dashed=0;whiteSpace=wrap;" vertex="1" parent="B_b6lFgtmEgpgwVWBHdD-17">
          <mxGeometry x="61" y="417" width="140" height="40" as="geometry" />
        </mxCell>
        <mxCell id="B_b6lFgtmEgpgwVWBHdD-20" value="Vérifie La Saisie du Nom de Qualification Commandée" style="html=1;align=center;verticalAlign=top;rounded=1;absoluteArcSize=1;arcSize=10;dashed=0;whiteSpace=wrap;" vertex="1" parent="B_b6lFgtmEgpgwVWBHdD-17">
          <mxGeometry x="50" y="120" width="140" height="50" as="geometry" />
        </mxCell>
        <mxCell id="B_b6lFgtmEgpgwVWBHdD-21" value="" style="ellipse;html=1;shape=endState;fillColor=strokeColor;" vertex="1" parent="B_b6lFgtmEgpgwVWBHdD-17">
          <mxGeometry x="290" y="420" width="52" height="50" as="geometry" />
        </mxCell>
        <mxCell id="B_b6lFgtmEgpgwVWBHdD-22" value="" style="html=1;verticalAlign=bottom;labelBackgroundColor=none;endArrow=block;endFill=1;rounded=0;" edge="1" parent="B_b6lFgtmEgpgwVWBHdD-17">
          <mxGeometry width="160" relative="1" as="geometry">
            <mxPoint x="202" y="440" as="sourcePoint" />
            <mxPoint x="292" y="440" as="targetPoint" />
          </mxGeometry>
        </mxCell>
        <mxCell id="B_b6lFgtmEgpgwVWBHdD-23" value="" style="html=1;verticalAlign=bottom;labelBackgroundColor=none;endArrow=block;endFill=1;rounded=0;entryX=0;entryY=0.75;entryDx=0;entryDy=0;" edge="1" parent="1" target="B_b6lFgtmEgpgwVWBHdD-20">
          <mxGeometry width="160" relative="1" as="geometry">
            <mxPoint x="100" y="200" as="sourcePoint" />
            <mxPoint x="260" y="200" as="targetPoint" />
          </mxGeometry>
        </mxCell>
        <mxCell id="B_b6lFgtmEgpgwVWBHdD-24" value="" style="html=1;verticalAlign=bottom;labelBackgroundColor=none;endArrow=block;endFill=1;rounded=0;entryX=0.5;entryY=0;entryDx=0;entryDy=0;exitX=0.571;exitY=1;exitDx=0;exitDy=0;exitPerimeter=0;" edge="1" parent="1" source="B_b6lFgtmEgpgwVWBHdD-20" target="B_b6lFgtmEgpgwVWBHdD-14">
          <mxGeometry width="160" relative="1" as="geometry">
            <mxPoint x="390" y="280.00000000000006" as="sourcePoint" />
            <mxPoint x="460" y="280.00000000000006" as="targetPoint" />
            <Array as="points">
              <mxPoint x="450" y="250" />
              <mxPoint x="55" y="250" />
            </Array>
          </mxGeometry>
        </mxCell>
        <mxCell id="B_b6lFgtmEgpgwVWBHdD-25" value="" style="html=1;verticalAlign=bottom;labelBackgroundColor=none;endArrow=block;endFill=1;rounded=0;exitX=1;exitY=0.5;exitDx=0;exitDy=0;exitPerimeter=0;" edge="1" parent="1" source="B_b6lFgtmEgpgwVWBHdD-14">
          <mxGeometry width="160" relative="1" as="geometry">
            <mxPoint x="100" y="322" as="sourcePoint" />
            <mxPoint x="390" y="330" as="targetPoint" />
            <Array as="points">
              <mxPoint x="350" y="330" />
            </Array>
          </mxGeometry>
        </mxCell>
        <mxCell id="B_b6lFgtmEgpgwVWBHdD-26" value="" style="html=1;verticalAlign=bottom;labelBackgroundColor=none;endArrow=block;endFill=1;rounded=0;exitX=0;exitY=0.5;exitDx=0;exitDy=0;entryX=1;entryY=0;entryDx=0;entryDy=0;" edge="1" parent="1" source="B_b6lFgtmEgpgwVWBHdD-14" target="B_b6lFgtmEgpgwVWBHdD-7">
          <mxGeometry width="160" relative="1" as="geometry">
            <mxPoint x="10" y="319" as="sourcePoint" />
            <mxPoint x="-530" y="360" as="targetPoint" />
            <Array as="points">
              <mxPoint x="-280" y="330" />
              <mxPoint x="-280" y="390" />
            </Array>
          </mxGeometry>
        </mxCell>
        <mxCell id="B_b6lFgtmEgpgwVWBHdD-27" value="Condition&#xa;remplie ?" style="rhombus;" vertex="1" parent="1">
          <mxGeometry x="21" y="437" width="90" height="80" as="geometry" />
        </mxCell>
        <mxCell id="B_b6lFgtmEgpgwVWBHdD-28" value="" style="html=1;verticalAlign=bottom;labelBackgroundColor=none;endArrow=block;endFill=1;rounded=0;entryX=0.5;entryY=0;entryDx=0;entryDy=0;exitX=0.571;exitY=1;exitDx=0;exitDy=0;exitPerimeter=0;" edge="1" parent="1" target="B_b6lFgtmEgpgwVWBHdD-27">
          <mxGeometry width="160" relative="1" as="geometry">
            <mxPoint x="461" y="357" as="sourcePoint" />
            <mxPoint x="471" y="427.00000000000006" as="targetPoint" />
            <Array as="points">
              <mxPoint x="461" y="397" />
              <mxPoint x="66" y="397" />
            </Array>
          </mxGeometry>
        </mxCell>
        <mxCell id="B_b6lFgtmEgpgwVWBHdD-29" value="Si non" style="text;html=1;align=center;verticalAlign=middle;whiteSpace=wrap;rounded=0;" vertex="1" parent="1">
          <mxGeometry x="-49" y="447" width="60" height="30" as="geometry" />
        </mxCell>
        <mxCell id="B_b6lFgtmEgpgwVWBHdD-30" value="Si oui" style="text;html=1;align=center;verticalAlign=middle;whiteSpace=wrap;rounded=0;" vertex="1" parent="1">
          <mxGeometry x="111" y="447" width="60" height="30" as="geometry" />
        </mxCell>
        <mxCell id="B_b6lFgtmEgpgwVWBHdD-31" value="" style="html=1;verticalAlign=bottom;labelBackgroundColor=none;endArrow=block;endFill=1;rounded=0;exitX=1;exitY=0.5;exitDx=0;exitDy=0;exitPerimeter=0;" edge="1" parent="1">
          <mxGeometry width="160" relative="1" as="geometry">
            <mxPoint x="111" y="477" as="sourcePoint" />
            <mxPoint x="381" y="477" as="targetPoint" />
            <Array as="points" />
          </mxGeometry>
        </mxCell>
        <mxCell id="B_b6lFgtmEgpgwVWBHdD-32" value="" style="html=1;verticalAlign=bottom;labelBackgroundColor=none;endArrow=block;endFill=1;rounded=0;exitX=0;exitY=0.5;exitDx=0;exitDy=0;entryX=1;entryY=0.25;entryDx=0;entryDy=0;" edge="1" parent="1" target="B_b6lFgtmEgpgwVWBHdD-9">
          <mxGeometry width="160" relative="1" as="geometry">
            <mxPoint x="21" y="477" as="sourcePoint" />
            <mxPoint x="-440" y="480" as="targetPoint" />
            <Array as="points">
              <mxPoint x="-370" y="480" />
            </Array>
          </mxGeometry>
        </mxCell>
        <mxCell id="B_b6lFgtmEgpgwVWBHdD-33" value="" style="html=1;verticalAlign=bottom;labelBackgroundColor=none;endArrow=block;endFill=1;rounded=0;entryX=0;entryY=0.5;entryDx=0;entryDy=0;exitX=1;exitY=0.5;exitDx=0;exitDy=0;" edge="1" parent="1" source="B_b6lFgtmEgpgwVWBHdD-10" target="B_b6lFgtmEgpgwVWBHdD-13">
          <mxGeometry width="160" relative="1" as="geometry">
            <mxPoint x="-340" y="310" as="sourcePoint" />
            <mxPoint x="-410" y="310" as="targetPoint" />
            <Array as="points">
              <mxPoint x="-270" y="280" />
              <mxPoint x="-270" y="200" />
            </Array>
          </mxGeometry>
        </mxCell>
      </root>
    </mxGraphModel>
  </diagram>
</mxfile>
